<svg width="88" height="59" viewBox="0 0 88 59" fill="none" xmlns="http://www.w3.org/2000/svg">
<path d="M23.5 30L26.2315 26.358C26.409 26.1214 26.5417 25.8541 26.623 25.5697V25.5697C27.25 23.3749 24.7725 21.6092 22.9026 22.9182L19.8104 25.0827C18.9891 25.6576 18.5 26.597 18.5 27.5995V27.5995C18.5 30.0849 21.2977 31.5416 23.3339 30.1163L23.5 30ZM23.5 30L27.5 38.25M27.5 38.25L30 46V46C31.7525 50.3812 37.9883 50.2822 39.6009 45.8476L39.9726 44.8254C40.6136 43.0626 40.3216 41.0954 39.1962 39.5949L38.6279 38.8373C37.2843 37.0458 36.8368 34.7369 37.4138 32.5732L38.3542 29.0466C38.451 28.6838 38.5 28.3098 38.5 27.9343V27.1354C38.5 25.5928 37.4352 24.2543 35.9321 23.9074V23.9074C33.8969 23.4377 32.7989 21.2247 33.656 19.32L34.2266 18.0519C35.2933 15.6816 33.5594 13 30.9601 13V13C29.478 13 28.1489 12.0872 27.6169 10.7039L26.4548 7.68253C25.1881 4.38901 20.7668 3.82654 18.7157 6.69798V6.69798C18.5722 6.89897 18.4457 7.11163 18.3375 7.33371L2.69225 39.47C1.26609 42.3994 2.74401 45.9147 5.83494 46.945V46.945C8.4779 47.826 11.3568 46.5483 12.4767 43.9974L13.1222 42.5271C14.2632 39.9283 16.8329 38.25 19.6712 38.25H27.5Z" stroke="white" stroke-width="3"/>
<path d="M31.5 13L32.0601 11.8797C33.0077 9.98458 34.3725 8.32884 36.052 7.03695V7.03695C38.6058 5.07246 41.7583 4.04752 44.9791 4.13457L56.4433 4.44441C57.7244 4.47904 58.8992 5.1653 59.5585 6.26422V6.26422C59.8491 6.74849 60.0266 7.29211 60.0777 7.85454L60.1 8.10042C60.3265 10.5912 58.6142 12.8429 56.1535 13.2903L55.7179 13.3695C55.2415 13.4561 54.7799 13.6082 54.3414 13.8135C53.5274 14.1948 52.2748 14.7574 52.5 14.5V14.5C52.5104 14.4881 52.0299 13.8552 52.0159 13.8625C50.3654 14.7161 48.5 15.5576 48.5 15C48.5 14.0825 46.8591 15.0624 45.3699 16.1406C43.7507 17.3128 42.4375 18.8438 41.3287 20.507V20.507C41.1096 20.8356 40.8995 21.1684 40.7095 21.5146C40.155 22.5251 39 24.7764 39 26C39 26.2059 38.9847 26.3708 38.9591 26.5113C38.7727 27.5355 38.5 28.5217 38.5 29.5627C38.5 30.5256 38.5 31.8015 38.5 33C38.5 35.2784 42.653 37.1416 43.3891 37.4539C43.4639 37.4856 43.5393 37.5107 43.6176 37.5321L48.5467 38.8764C48.7057 38.9197 48.7271 39.1364 48.5797 39.2101V39.2101C48.4169 39.2916 48.4647 39.5357 48.6462 39.5497L53.8319 39.9486C54.0944 39.9688 54.2123 40.2877 54.0262 40.4738V40.4738C53.832 40.668 53.9695 41 54.2441 41H56.8359C57.2556 41 57.6526 41.1908 57.9149 41.5186L58.6562 42.4452C59.2024 43.128 59.5 43.9764 59.5 44.8508V45.3353C59.5 47.5354 58.1236 49.5005 56.056 50.2524L55.1054 50.5981C54.3741 50.864 53.6019 51 52.8238 51H51.0085C48.3724 51 45.7725 50.3862 43.4147 49.2073L39 47" stroke="white" stroke-width="3"/>
<path d="M58.5 12.5L60.2278 25.8907C60.4089 27.2936 60.4541 28.7108 60.3631 30.1224L59.5 43.5V44.9692C59.5 45.6538 59.416 46.3358 59.25 47L59.0742 47.7033C59.0249 47.9004 59 48.1027 59 48.3059V48.3059C59 49.0606 59.3431 49.7745 59.9325 50.246L60.4452 50.6562C61.128 51.2024 61.9764 51.5 62.8508 51.5H63.1049C64.3183 51.5 65.482 51.018 66.34 50.16L66.5493 49.9507C67.4826 49.0174 68.0332 47.769 68.0932 46.4505L68.5 37.5V31.7906C68.5 31.3185 68.8021 30.8993 69.25 30.75V30.75C69.6979 30.6007 70.1911 30.7548 70.4743 31.1325L70.8856 31.6808C71.2724 32.1965 71.8794 32.5 72.524 32.5H73.9393C74.6185 32.5 75.2698 32.2302 75.75 31.75L76.2929 31.2071C76.4255 31.0745 76.6054 31 76.7929 31V31C77.1834 31 77.5 31.3166 77.5 31.7071V48.5423C77.5 49.169 77.6703 49.7839 77.9928 50.3213V50.3213C78.6176 51.3627 79.7432 52 80.9577 52H82.0423C83.2568 52 84.3824 51.3627 85.0072 50.3213V50.3213C85.3297 49.7839 85.5 49.169 85.5 48.5423V30.5V25V20L85.0699 12.259C85.0247 11.4441 85.2585 10.6381 85.7329 9.97394V9.97394C86.7526 8.54634 86.6145 6.5579 85.2356 5.47318C84.5511 4.93472 83.8807 4.50001 83.5 4.50001C82.1332 4.50001 81.5 4.49999 80.5 4.50001C79.9122 4.50001 79.1751 4.87761 78.4686 5.36488C76.9396 6.41939 76.9183 8.57139 78.1271 9.9816V9.9816C78.6904 10.6388 79 11.4758 79 12.3413V16.5V20V23.7381C79 24.2141 78.7621 24.6586 78.3661 24.9226V24.9226C77.8503 25.2665 77.1713 25.237 76.6872 24.8497L75.8413 24.173C75.3623 23.7899 74.6719 23.8281 74.2382 24.2618V24.2618C73.8146 24.6854 73.144 24.733 72.6648 24.3736L72.3301 24.1226C71.8382 23.7536 71.1618 23.7536 70.6699 24.1226V24.1226C70.0346 24.5991 69.1293 24.444 68.6888 23.7832L68.5796 23.6194C68.5267 23.54 68.466 23.466 68.3985 23.3986V23.3986C68.1422 23.1422 67.9913 22.7991 67.9755 22.4369L67.559 12.8568C67.5209 11.9813 67.7977 11.1212 68.339 10.4321V10.4321C70.2294 8.02628 68.5155 4.50001 65.4558 4.50001H56.5" stroke="white" stroke-width="3"/>
</svg>
